<svg width="36" height="36" viewBox="0 0 36 36" fill="none" xmlns="http://www.w3.org/2000/svg">
<rect width="36" height="36" rx="18" fill="#E60A14"/>
<path d="M16.4688 18.2578C17.3164 17.8203 17.7812 17.1914 17.7812 16.2344C17.7812 14.293 16.332 13.8281 14.6914 13.8281H10.125V23.5078H14.8008C16.5781 23.5078 18.2188 22.6602 18.2188 20.6914C18.2188 19.4883 17.6445 18.5859 16.4688 18.2578ZM12.2305 15.4688H14.2539C15.0195 15.4688 15.7031 15.6875 15.7031 16.5898C15.7031 17.4102 15.1562 17.7383 14.3906 17.7383H12.2305V15.4688ZM14.5273 21.8672H12.2305V19.1875H14.5547C15.5117 19.1875 16.0859 19.5977 16.0859 20.582C16.0859 21.5664 15.375 21.8672 14.5273 21.8672ZM24.3164 15.2773V14.3203H20.4062V15.2773H24.3164ZM25.875 20.1172C25.875 18.0391 24.6445 16.2891 22.457 16.2891C20.2969 16.2891 18.8477 17.9023 18.8477 20.0078C18.8477 22.1953 20.2422 23.6992 22.457 23.6992C24.125 23.6992 25.2188 22.9336 25.7383 21.3477H24.043C23.8516 21.9492 23.0859 22.25 22.5117 22.25C21.3906 22.25 20.7891 21.5938 20.7891 20.4727H25.8477C25.8477 20.3633 25.875 20.2266 25.875 20.1172ZM20.7891 19.2422C20.8438 18.3398 21.4727 17.7656 22.375 17.7656C23.3594 17.7656 23.8516 18.3125 23.9336 19.2422H20.7891Z" fill="white"/>
</svg>
