<svg width="36" height="36" viewBox="0 0 36 36" fill="none" xmlns="http://www.w3.org/2000/svg">
<rect width="36" height="36" rx="18" fill="#E60A14"/>
<path d="M24.7812 18.75C24.7812 15.0039 21.7461 11.9688 18 11.9688C14.2539 11.9688 11.2188 15.0039 11.2188 18.75C11.2188 22.1406 13.6797 24.957 16.9336 25.4492V20.7188H15.2109V18.75H16.9336V17.2734C16.9336 15.5781 17.9453 14.6211 19.4766 14.6211C20.2422 14.6211 21.0078 14.7578 21.0078 14.7578V16.4258H20.1602C19.3125 16.4258 19.0391 16.9453 19.0391 17.4922V18.75H20.9258L20.625 20.7188H19.0391V25.4492C22.293 24.957 24.7812 22.1406 24.7812 18.75Z" fill="white"/>
</svg>
