<svg width="36" height="36" viewBox="0 0 36 36" fill="none" xmlns="http://www.w3.org/2000/svg">
<rect width="36" height="36" rx="18" fill="#E60A14"/>
<path d="M24.6719 18.9141C24.6719 18.4766 24.6172 18.1484 24.5625 17.793H18.1094V20.1172H21.9375C21.8008 21.1289 20.7891 23.043 18.1094 23.043C15.7852 23.043 13.8984 21.1289 13.8984 18.75C13.8984 14.9492 18.3828 13.1992 20.7891 15.5234L22.6484 13.7461C21.4727 12.6523 19.9141 11.9688 18.1094 11.9688C14.3359 11.9688 11.3281 15.0039 11.3281 18.75C11.3281 22.5234 14.3359 25.5312 18.1094 25.5312C22.0195 25.5312 24.6719 22.7969 24.6719 18.9141Z" fill="white"/>
</svg>
