<svg width="36" height="36" viewBox="0 0 36 36" fill="none" xmlns="http://www.w3.org/2000/svg">
<rect width="36" height="36" rx="18" fill="#E60A14"/>
<path d="M18.5 15.6055C16.75 15.6055 15.3555 17.0273 15.3555 18.75C15.3555 20.5 16.75 21.8945 18.5 21.8945C20.2227 21.8945 21.6445 20.5 21.6445 18.75C21.6445 17.0273 20.2227 15.6055 18.5 15.6055ZM18.5 20.8008C17.3789 20.8008 16.4492 19.8984 16.4492 18.75C16.4492 17.6289 17.3516 16.7266 18.5 16.7266C19.6211 16.7266 20.5234 17.6289 20.5234 18.75C20.5234 19.8984 19.6211 20.8008 18.5 20.8008ZM22.4922 15.4961C22.4922 15.0859 22.1641 14.7578 21.7539 14.7578C21.3438 14.7578 21.0156 15.0859 21.0156 15.4961C21.0156 15.9062 21.3438 16.2344 21.7539 16.2344C22.1641 16.2344 22.4922 15.9062 22.4922 15.4961ZM24.5703 16.2344C24.5156 15.25 24.2969 14.375 23.5859 13.6641C22.875 12.9531 22 12.7344 21.0156 12.6797C20.0039 12.625 16.9688 12.625 15.957 12.6797C14.9727 12.7344 14.125 12.9531 13.3867 13.6641C12.6758 14.375 12.457 15.25 12.4023 16.2344C12.3477 17.2461 12.3477 20.2812 12.4023 21.293C12.457 22.2773 12.6758 23.125 13.3867 23.8633C14.125 24.5742 14.9727 24.793 15.957 24.8477C16.9688 24.9023 20.0039 24.9023 21.0156 24.8477C22 24.793 22.875 24.5742 23.5859 23.8633C24.2969 23.125 24.5156 22.2773 24.5703 21.293C24.625 20.2812 24.625 17.2461 24.5703 16.2344ZM23.2578 22.3594C23.0664 22.9062 22.6289 23.3164 22.1094 23.5352C21.2891 23.8633 19.375 23.7812 18.5 23.7812C17.5977 23.7812 15.6836 23.8633 14.8906 23.5352C14.3438 23.3164 13.9336 22.9062 13.7148 22.3594C13.3867 21.5664 13.4688 19.6523 13.4688 18.75C13.4688 17.875 13.3867 15.9609 13.7148 15.1406C13.9336 14.6211 14.3438 14.2109 14.8906 13.9922C15.6836 13.6641 17.5977 13.7461 18.5 13.7461C19.375 13.7461 21.2891 13.6641 22.1094 13.9922C22.6289 14.1836 23.0391 14.6211 23.2578 15.1406C23.5859 15.9609 23.5039 17.875 23.5039 18.75C23.5039 19.6523 23.5859 21.5664 23.2578 22.3594Z" fill="white"/>
</svg>
