<svg width="130" height="15" viewBox="0 0 130 15" fill="none" xmlns="http://www.w3.org/2000/svg">
<path d="M125.256 12.673C125.248 12.2155 125.379 11.7658 125.634 11.3812C125.889 10.9966 126.257 10.6945 126.689 10.5134C127.122 10.3323 127.6 10.2804 128.063 10.3642C128.526 10.4481 128.952 10.6639 129.289 10.9843C129.625 11.3046 129.856 11.715 129.951 12.1631C130.046 12.6112 130.002 13.0768 129.825 13.5005C129.647 13.9243 129.343 14.287 128.953 14.5425C128.562 14.798 128.102 14.9348 127.631 14.9354C127.008 14.9408 126.407 14.7056 125.962 14.2815C125.517 13.8574 125.263 13.2789 125.256 12.673ZM129.643 12.673C129.652 12.2837 129.542 11.9006 129.325 11.5728C129.109 11.2449 128.797 10.9871 128.429 10.8322C128.062 10.6774 127.655 10.6326 127.261 10.7035C126.867 10.7744 126.503 10.9579 126.217 11.2304C125.931 11.5029 125.735 11.8522 125.654 12.2335C125.572 12.6149 125.61 13.0111 125.762 13.3716C125.914 13.732 126.173 14.0403 126.505 14.2571C126.838 14.4739 127.23 14.5894 127.631 14.5888C128.159 14.5932 128.667 14.394 129.045 14.0349C129.422 13.6759 129.637 13.1861 129.643 12.673ZM126.408 12.6795C126.388 12.5034 126.407 12.3253 126.462 12.1566C126.517 11.9878 126.608 11.8319 126.728 11.6987C126.848 11.5656 126.995 11.458 127.16 11.3829C127.325 11.3077 127.505 11.2665 127.687 11.2619C127.939 11.2535 128.187 11.3235 128.396 11.4617C128.604 11.6 128.762 11.7993 128.845 12.0306L128.405 12.1947C128.358 12.045 128.264 11.9136 128.135 11.8196C128.006 11.7255 127.85 11.6737 127.689 11.6717C127.132 11.6717 126.88 12.1629 126.88 12.68C126.88 13.1971 127.126 13.669 127.695 13.669C127.854 13.6719 128.009 13.6233 128.135 13.5309C128.262 13.4384 128.353 13.3075 128.394 13.1588L128.815 13.308C128.741 13.5384 128.592 13.739 128.39 13.8789C128.188 14.0189 127.944 14.0904 127.695 14.0827C127.514 14.0802 127.334 14.0411 127.169 13.9677C127.003 13.8943 126.855 13.7883 126.734 13.6563C126.613 13.5244 126.521 13.3694 126.465 13.2013C126.409 13.0331 126.389 12.8554 126.408 12.6795Z" fill="black"/>
<path d="M7.62522 6.17916H14.6998L14.6118 7.98157C14.5811 8.95145 14.3684 9.90772 13.9839 10.8033C13.6343 11.617 13.1296 12.3593 12.4965 12.991C11.8709 13.6043 11.1252 14.0895 10.3034 14.418C9.42617 14.7675 8.48577 14.9427 7.53772 14.9331C6.50829 14.9416 5.48806 14.7444 4.54027 14.3539C3.64186 13.9861 2.82872 13.4465 2.14917 12.7673C0.761095 11.3587 -0.00948104 9.48126 8.80671e-05 7.53109C-0.0047011 6.5436 0.186402 5.56446 0.562942 4.64724C0.920759 3.76486 1.44794 2.95663 2.11642 2.26558C2.8017 1.56192 3.62898 1.00317 4.54655 0.624265C5.46412 0.245355 6.45226 0.0544269 7.4492 0.0634135C8.15339 0.0614468 8.85439 0.155338 9.53176 0.342351C10.1902 0.52405 10.8176 0.798797 11.3938 1.15778C11.9692 1.51777 12.4856 1.95976 12.9258 2.46894C13.3849 3.0022 13.7533 3.6035 14.0167 4.24997H9.80705C9.43169 3.95226 8.99054 3.74294 8.51812 3.63839C8.15297 3.55533 7.78008 3.50852 7.4052 3.49867C6.88113 3.49472 6.36237 3.60089 5.88447 3.80993C5.41915 4.01346 4.99987 4.30445 4.6508 4.66614C4.29427 5.0369 4.01365 5.47023 3.82391 5.94299C3.62444 6.43484 3.52336 6.95917 3.52611 7.48783C3.52186 8.02373 3.62294 8.55549 3.82391 9.05456C4.01349 9.52739 4.29413 9.96075 4.6508 10.3314C4.99956 10.6941 5.41887 10.9859 5.88447 11.1901C6.36238 11.3991 6.88116 11.5051 7.4052 11.5009C7.64528 11.4966 7.88472 11.4752 8.12156 11.4367C8.43241 11.3868 8.73586 11.3003 9.0252 11.1792C9.36233 11.0375 9.67464 10.8456 9.95083 10.6103C10.2706 10.3355 10.5229 9.9945 10.6892 9.61244H7.62522V6.17916Z" fill="black"/>
<path d="M96.6546 7.53157C96.6659 8.98246 96.2358 10.4043 95.4183 11.6184C94.6008 12.8326 93.4323 13.7849 92.0596 14.3559C91.1232 14.7456 90.114 14.9428 89.0954 14.9351C88.0876 14.9421 87.0894 14.7448 86.1645 14.3559C85.2699 13.9805 84.4581 13.4414 83.7734 12.7677C83.0866 12.0901 82.5372 11.293 82.1539 10.4179C81.7537 9.50657 81.5511 8.52487 81.5588 7.53406C81.5526 6.54673 81.7512 5.5683 82.1426 4.65717C82.5177 3.77647 83.0598 2.9721 83.7406 2.28595C84.4231 1.6019 85.2348 1.05191 86.1312 0.666022C87.0639 0.262658 88.0746 0.0578623 89.0954 0.0653856H96.6546V7.53157ZM93.1285 7.53157V3.49717H89.0954C88.5668 3.49755 88.0437 3.60129 87.5573 3.8022C87.0708 4.0031 86.6309 4.29708 86.2638 4.66662C85.8975 5.04036 85.606 5.47705 85.4041 5.95441C85.1897 6.45394 85.0809 6.99032 85.0843 7.53157C85.0795 8.06836 85.1839 8.60079 85.3913 9.0983C85.5851 9.5676 85.8736 9.99447 86.2397 10.3538C86.6072 10.7096 87.0414 10.9936 87.5189 11.1906C88.0193 11.3958 88.5569 11.5016 89.1 11.5016C89.6431 11.5016 90.1808 11.3958 90.6811 11.1906C91.1566 10.9899 91.5901 10.7063 91.9603 10.3538C92.332 9.99665 92.6246 9.56939 92.82 9.0983C93.0273 8.60073 93.1316 8.06835 93.127 7.53157" fill="#E60A14"/>
<path d="M36.2362 0.0632324L41.217 10.5992L46.1757 0.0632324H49.8783V14.9344H46.3522V7.91725L43.1348 14.9344H39.2777L36.0602 7.91725V14.9344H32.5342V0.0632324H36.2362Z" fill="black"/>
<path d="M55.041 0.0689431L58.5665 5.74317L62.0275 0.0440823L66.1486 0.0296631L60.3441 9.58018L60.363 14.9382L56.837 14.9506L56.8176 9.59261L50.9424 0.0833624L55.041 0.0689431Z" fill="black"/>
<path d="M80.1426 10.1488C79.8701 10.8525 79.4872 11.5112 79.0077 12.1013C78.5386 12.6803 77.9855 13.1899 77.3657 13.6144C76.1004 14.4767 74.5915 14.9376 73.046 14.934C72.0347 14.9402 71.0329 14.743 70.1039 14.3547C69.2073 13.9829 68.3949 13.4433 67.7127 12.7666C67.0308 12.0854 66.4887 11.2842 66.1153 10.4058C65.724 9.49517 65.5254 8.51726 65.5314 7.53043C65.5243 6.5355 65.7268 5.54967 66.1265 4.63365C66.51 3.75217 67.0594 2.94799 67.7465 2.26243C68.4307 1.58255 69.2425 1.03622 70.1381 0.652944C71.7873 -0.0418336 73.6412 -0.125673 75.3497 0.417264C76.0661 0.648123 76.7451 0.976933 77.3662 1.3938C77.9854 1.81078 78.5353 2.31733 78.9969 2.89588C79.4708 3.48837 79.8503 4.14676 80.1226 4.84895H76.0675C75.7008 4.43454 75.25 4.0982 74.7433 3.86098C74.2213 3.61608 73.6482 3.4912 73.0686 3.49602C72.54 3.49641 72.0169 3.60014 71.5304 3.80105C71.0439 4.00196 70.604 4.29594 70.2369 4.66547C69.8706 5.03922 69.5791 5.47591 69.3773 5.95326C69.1628 6.4528 69.054 6.98918 69.0575 7.53043C69.0525 8.06723 69.1569 8.59967 69.3645 9.09715C69.5582 9.56645 69.8467 9.99332 70.2128 10.3526C70.5803 10.7084 71.0146 10.9925 71.4921 11.1894C72.013 11.4034 72.5742 11.5092 73.1396 11.4999C73.7051 11.4907 74.2623 11.3666 74.7755 11.1357C75.286 10.9008 75.7403 10.5646 76.109 10.1488H80.1426Z" fill="black"/>
<path d="M103.435 14.9326H97.9268V0.0633802H103.435C104.517 0.0574392 105.592 0.230626 106.615 0.575512C107.585 0.900737 108.482 1.4041 109.256 2.05821C110.02 2.70777 110.634 3.50641 111.059 4.40208C111.51 5.36673 111.736 6.41645 111.72 7.47587C111.736 8.53545 111.51 9.58533 111.059 10.5502C110.635 11.4438 110.03 12.2448 109.279 12.905C108.513 13.5703 107.619 14.0815 106.648 14.409C105.616 14.7621 104.529 14.9392 103.435 14.9326ZM101.51 11.4441H103.435C104.152 11.4591 104.866 11.3446 105.54 11.1065C106.088 10.9114 106.588 10.6064 107.007 10.2115C107.379 9.85326 107.669 9.42231 107.858 8.94713C108.231 8.01443 108.231 6.97957 107.858 6.04687C107.669 5.57172 107.379 5.14079 107.007 4.78245C106.587 4.38766 106.088 4.08276 105.54 3.88746C104.866 3.64966 104.152 3.53519 103.435 3.54986H101.51V11.4441Z" fill="black"/>
<path d="M112.995 14.9344V0.0632324H124.037V3.55219H116.578V5.75436H124.037V9.24282H116.578V11.4455H124.037V14.934L112.995 14.9344Z" fill="black"/>
<path d="M23.6027 1.2927e-05C22.0755 -0.0027418 20.5818 0.434833 19.3106 1.25736C18.0394 2.07988 17.0479 3.25037 16.4616 4.62069C15.8752 5.991 15.7205 7.49954 16.0168 8.95537C16.3132 10.4112 17.0474 11.7489 18.1264 12.7991C19.2055 13.8493 20.5809 14.5648 22.0786 14.8551C23.5763 15.1454 25.129 14.9974 26.5401 14.4299C27.9513 13.8623 29.1574 12.9007 30.0059 11.6668C30.8544 10.4329 31.307 8.98206 31.3066 7.49802C31.3075 6.51415 31.1088 5.53976 30.7221 4.63049C30.3354 3.72121 29.7681 2.89485 29.0528 2.1986C28.3374 1.50235 27.4879 0.949828 26.5528 0.572593C25.6176 0.195359 24.6152 0.000796158 23.6027 1.2927e-05ZM23.6027 11.4151C22.8057 11.4163 22.0262 11.1877 21.3629 10.7583C20.6995 10.3289 20.1822 9.71801 19.8762 9.00284C19.5703 8.28768 19.4895 7.5004 19.6441 6.74061C19.7987 5.98082 20.1817 5.28266 20.7447 4.73446C21.3078 4.18625 22.0255 3.81262 22.807 3.66085C23.5886 3.50908 24.399 3.58597 25.1356 3.88182C25.8722 4.17766 26.5019 4.67915 26.9451 5.32285C27.3884 5.96654 27.6252 6.72352 27.6256 7.49802C27.6265 8.01196 27.5231 8.52103 27.3213 8.99611C27.1195 9.47119 26.8234 9.90295 26.4497 10.2667C26.0761 10.6305 25.6323 10.9191 25.1438 11.116C24.6553 11.313 24.1316 11.4145 23.6027 11.4146V11.4151Z" fill="black"/>
</svg>
