<svg width="36" height="36" viewBox="0 0 36 36" fill="none" xmlns="http://www.w3.org/2000/svg">
<rect width="36" height="36" rx="18" fill="#E60A14"/>
<path d="M24.625 17.4922V15.1133C24.5977 15.1133 24.5977 15.1133 24.5977 15.1133C23.9414 15.1133 23.3125 14.9219 22.793 14.5664C22.0273 14.0742 21.4805 13.2812 21.3164 12.3789C21.2617 12.1875 21.2617 11.9961 21.2617 11.8047C21.2617 11.7773 21.2617 11.7773 21.2617 11.75H18.8555V21.3203C18.8555 22.4414 17.9258 23.3711 16.8047 23.3711C15.6836 23.3711 14.7539 22.4414 14.7539 21.3203C14.7539 20.1992 15.6836 19.2695 16.8047 19.2695C17.0234 19.2695 17.2148 19.2969 17.4336 19.3789V16.918C17.2148 16.8906 17.0234 16.8633 16.8047 16.8633C14.3438 16.8633 12.375 18.8594 12.375 21.3203C12.375 23.7812 14.3438 25.75 16.8047 25.75C19.2656 25.75 21.2617 23.7812 21.2617 21.3203V16.4258C22.1914 17.1094 23.3398 17.4922 24.5977 17.4922H24.625Z" fill="white"/>
</svg>
