<svg width="36" height="36" viewBox="0 0 36 36" fill="none" xmlns="http://www.w3.org/2000/svg">
<rect width="36" height="36" rx="18" fill="#E60A14"/>
<path d="M23.5508 15.9062C24.0977 15.4961 24.5898 15.0039 24.9727 14.4297C24.4805 14.6484 23.9062 14.8125 23.332 14.8672C23.9336 14.5117 24.3711 13.9648 24.5898 13.2812C24.043 13.6094 23.4141 13.8555 22.7852 13.9922C22.2383 13.418 21.5 13.0898 20.6797 13.0898C19.0938 13.0898 17.8086 14.375 17.8086 15.9609C17.8086 16.1797 17.8359 16.3984 17.8906 16.6172C15.5117 16.4805 13.3789 15.332 11.957 13.6094C11.7109 14.0195 11.5742 14.5117 11.5742 15.0586C11.5742 16.043 12.0664 16.918 12.8594 17.4375C12.3945 17.4102 11.9297 17.3008 11.5469 17.082V17.1094C11.5469 18.5039 12.5312 19.6523 13.8438 19.9258C13.625 19.9805 13.3516 20.0352 13.1055 20.0352C12.9141 20.0352 12.75 20.0078 12.5586 19.9805C12.9141 21.1289 13.9805 21.9492 15.2383 21.9766C14.2539 22.7422 13.0234 23.207 11.6836 23.207C11.4375 23.207 11.2188 23.1797 11 23.1523C12.2578 23.9727 13.7617 24.4375 15.4023 24.4375C20.6797 24.4375 23.5508 20.0898 23.5508 16.2891C23.5508 16.1523 23.5508 16.043 23.5508 15.9062Z" fill="white"/>
</svg>
