<svg width="36" height="36" viewBox="0 0 36 36" fill="none" xmlns="http://www.w3.org/2000/svg">
<rect width="36" height="36" rx="18" fill="#E60A14"/>
<path d="M25.1367 15.168C24.9727 14.5117 24.4531 13.9922 23.8242 13.8281C22.6484 13.5 18 13.5 18 13.5C18 13.5 13.3242 13.5 12.1484 13.8281C11.5195 13.9922 11 14.5117 10.8359 15.168C10.5078 16.3164 10.5078 18.7773 10.5078 18.7773C10.5078 18.7773 10.5078 21.2109 10.8359 22.3867C11 23.043 11.5195 23.5352 12.1484 23.6992C13.3242 24 18 24 18 24C18 24 22.6484 24 23.8242 23.6992C24.4531 23.5352 24.9727 23.043 25.1367 22.3867C25.4648 21.2109 25.4648 18.7773 25.4648 18.7773C25.4648 18.7773 25.4648 16.3164 25.1367 15.168ZM16.4688 20.9922V16.5625L20.3516 18.7773L16.4688 20.9922Z" fill="white"/>
</svg>
